<?xml version="1.0" standalone="no"?>
<!DOCTYPE svg PUBLIC "-//W3C//DTD SVG 20010904//EN"
 "http://www.w3.org/TR/2001/REC-SVG-20010904/DTD/svg10.dtd">
<svg version="1.0" xmlns="http://www.w3.org/2000/svg"
 width="500.000000pt" height="278.000000pt" viewBox="0 0 500.000000 278.000000"
 preserveAspectRatio="xMidYMid meet">

<g transform="translate(0.000000,278.000000) scale(0.100000,-0.100000)"
fill="#000000" stroke="none">
<path d="M2370 2629 c-114 -47 -76 -187 80 -291 17 -11 22 -19 15 -26 -21 -21
-151 -53 -251 -61 -204 -18 -428 18 -670 108 -44 16 -113 36 -154 45 -92 21
-221 35 -214 24 3 -4 22 -8 43 -8 71 0 195 -29 356 -84 203 -69 327 -95 490
-103 148 -6 278 11 377 51 l58 24 58 -24 c145 -58 394 -69 601 -25 92 20 414
122 406 129 -2 2 -72 -19 -157 -46 -84 -28 -205 -61 -268 -73 -197 -38 -449
-27 -575 25 -42 18 -44 31 -7 50 40 20 107 90 126 130 25 53 21 93 -13 127
-24 23 -38 29 -74 29 -38 0 -49 -5 -71 -30 l-25 -31 -28 30 c-32 35 -67 45
-103 30z"/>
<path d="M1000 2580 c0 -38 24 -86 49 -100 11 -5 36 -10 55 -10 34 0 36 2 36
34 0 41 -37 82 -89 96 -50 14 -51 14 -51 -20z"/>
<path d="M3935 2595 c-48 -17 -74 -50 -75 -92 0 -31 2 -33 36 -33 46 0 70 14
89 50 18 35 20 90 3 90 -7 -1 -31 -7 -53 -15z"/>
<path d="M860 2535 c-17 -20 -5 -45 20 -45 11 0 23 7 26 15 6 15 -11 45 -26
45 -4 0 -13 -7 -20 -15z"/>
<path d="M1251 2540 c-19 -11 -9 -45 14 -45 13 0 21 8 23 21 3 23 -17 37 -37
24z"/>
<path d="M3721 2540 c-19 -11 -9 -45 14 -45 13 0 21 8 23 21 3 23 -17 37 -37
24z"/>
<path d="M4099 2534 c-10 -12 -9 -18 4 -31 18 -18 47 -11 47 11 0 25 -35 39
-51 20z"/>
<path d="M590 2526 c0 -9 7 -32 15 -52 17 -42 71 -69 117 -59 28 6 30 10 24
39 -10 49 -46 78 -105 84 -43 4 -51 2 -51 -12z"/>
<path d="M4315 2531 c-30 -13 -54 -43 -61 -78 -6 -28 -3 -32 24 -38 46 -10
100 17 117 59 24 56 20 66 -22 65 -21 0 -47 -4 -58 -8z"/>
<path d="M973 2423 c15 -2 37 -2 50 0 12 2 0 4 -28 4 -27 0 -38 -2 -22 -4z"/>
<path d="M3753 2423 c15 -2 37 -2 50 0 12 2 0 4 -28 4 -27 0 -38 -2 -22 -4z"/>
<path d="M3978 2423 c12 -2 32 -2 45 0 12 2 2 4 -23 4 -25 0 -35 -2 -22 -4z"/>
<path d="M795 2396 c-105 -28 -228 -75 -302 -117 -36 -20 -67 -29 -96 -29 -53
0 -89 -25 -117 -80 -22 -44 -16 -50 50 -50 47 0 96 37 105 79 8 37 24 51 110
94 95 47 202 84 310 107 50 10 77 19 60 19 -16 0 -70 -11 -120 -23z"/>
<path d="M3683 2413 c9 -2 23 -2 30 0 6 3 -1 5 -18 5 -16 0 -22 -2 -12 -5z"/>
<path d="M4073 2413 c9 -2 23 -2 30 0 6 3 -1 5 -18 5 -16 0 -22 -2 -12 -5z"/>
<path d="M3628 2403 c6 -2 18 -2 25 0 6 3 1 5 -13 5 -14 0 -19 -2 -12 -5z"/>
<path d="M4128 2403 c6 -2 18 -2 25 0 6 3 1 5 -13 5 -14 0 -19 -2 -12 -5z"/>
<path d="M444 2385 c-8 -21 2 -45 19 -45 20 0 40 27 33 45 -7 19 -45 20 -52 0z"/>
<path d="M3588 2393 c7 -3 16 -2 19 1 4 3 -2 6 -13 5 -11 0 -14 -3 -6 -6z"/>
<path d="M4178 2393 c7 -3 16 -2 19 1 4 3 -2 6 -13 5 -11 0 -14 -3 -6 -6z"/>
<path d="M4504 2385 c-4 -9 0 -23 9 -32 21 -21 49 -9 45 19 -4 28 -45 38 -54
13z"/>
<path d="M4275 2367 c84 -28 214 -88 255 -117 17 -12 30 -31 30 -42 0 -11 15
-35 34 -54 27 -27 42 -34 74 -34 69 0 75 6 52 50 -28 56 -64 80 -118 80 -31 0
-60 9 -96 29 -63 36 -219 97 -266 105 -19 3 -3 -5 35 -17z"/>
<path d="M971 2364 c-23 -16 -60 -86 -61 -113 0 -10 12 -12 52 -9 65 7 98 39
98 99 0 37 -1 39 -33 39 -18 0 -43 -7 -56 -16z"/>
<path d="M3940 2339 c0 -59 42 -99 104 -99 52 0 54 5 27 66 -23 50 -55 74 -98
74 -32 0 -33 -1 -33 -41z"/>
<path d="M1294 2345 c-4 -9 0 -23 9 -32 21 -21 49 -9 45 19 -4 28 -45 38 -54
13z"/>
<path d="M3654 2345 c-8 -21 2 -45 19 -45 21 0 38 25 31 44 -8 20 -43 21 -50
1z"/>
<path d="M790 2325 c-15 -18 2 -45 30 -45 23 0 34 28 19 46 -15 18 -33 18 -49
-1z"/>
<path d="M4160 2325 c-11 -13 -11 -19 3 -32 21 -21 49 -9 45 19 -4 28 -30 35
-48 13z"/>
<path d="M608 2284 c-30 -16 -68 -80 -68 -115 0 -20 4 -21 47 -16 63 7 103 49
103 107 0 37 -2 40 -27 40 -16 -1 -40 -8 -55 -16z"/>
<path d="M4310 2260 c0 -58 39 -98 104 -107 l49 -6 -6 37 c-11 69 -61 116
-123 116 -21 0 -24 -4 -24 -40z"/>
<path d="M786 1680 c-71 -22 -102 -100 -54 -134 30 -21 44 -8 19 18 -29 31
-26 53 12 76 63 39 170 17 183 -37 8 -32 -4 -54 -39 -71 -32 -16 -35 -32 -7
-32 33 0 75 26 88 56 17 35 0 86 -35 109 -30 20 -125 29 -167 15z"/>
<path d="M1546 1671 c-10 -11 -21 -53 -29 -112 -11 -82 -15 -94 -32 -95 -11
-1 -24 -2 -28 -3 -4 -1 3 -16 15 -35 22 -32 23 -39 14 -120 -8 -77 -7 -88 9
-106 23 -25 67 -26 88 -2 20 21 22 74 6 105 -9 16 -9 22 0 25 6 2 25 15 42 29
l30 26 20 -22 c39 -41 117 -40 173 2 l32 25 33 -30 c30 -27 39 -30 82 -26 31
3 60 14 83 31 40 31 46 33 46 13 0 -23 29 -46 59 -46 73 0 90 107 27 159 -29
24 -19 41 24 41 22 0 40 5 40 10 0 6 -12 10 -27 10 -45 0 -51 10 -44 66 8 61
5 74 -19 74 -16 0 -20 -11 -26 -61 -6 -51 -11 -62 -30 -71 -29 -14 -30 -24 -4
-31 17 -4 19 -11 14 -39 -13 -69 -69 -118 -136 -118 -61 0 -86 57 -53 120 15
30 54 48 74 35 6 -3 11 -17 11 -31 0 -29 25 -32 39 -6 17 33 -13 62 -63 62
-63 0 -108 -33 -122 -90 -17 -72 -102 -113 -165 -80 -44 24 -10 150 41 150 46
0 51 -71 5 -92 -33 -15 -21 -30 13 -17 43 17 62 39 62 75 0 40 -21 54 -78 54
-62 0 -122 -61 -122 -123 0 -31 -39 -67 -73 -67 -26 0 -27 2 -27 59 0 50 4 64
31 97 41 52 59 88 59 118 0 51 -60 75 -94 37z m80 -26 c13 -34 -33 -114 -57
-99 -10 6 -6 50 7 97 6 21 42 23 50 2z m604 -195 c16 -31 9 -74 -14 -78 -25
-5 -32 9 -28 58 4 44 24 53 42 20z m-662 -152 c7 -7 12 -27 12 -45 0 -26 -4
-33 -19 -33 -27 0 -33 13 -25 55 7 37 13 42 32 23z"/>
<path d="M2412 1674 c-30 -21 -29 -65 3 -103 25 -28 25 -33 15 -93 -5 -35 -10
-73 -10 -85 0 -52 72 -81 116 -48 25 19 42 19 60 0 20 -20 74 -19 102 1 49 34
82 147 82 282 0 59 -2 63 -21 60 -19 -3 -22 -10 -24 -74 -6 -145 -42 -244 -89
-244 -13 0 -26 7 -30 15 -3 8 1 61 9 118 8 56 15 119 15 140 0 34 -3 38 -22
35 -21 -3 -24 -12 -41 -133 -10 -71 -25 -140 -33 -152 -14 -22 -58 -32 -67
-15 -3 4 2 52 9 107 19 144 18 182 -5 195 -27 14 -43 13 -69 -6z m36 -52 c2
-23 -1 -32 -12 -32 -20 0 -38 34 -30 55 11 28 39 13 42 -23z"/>
<path d="M3240 1664 c-6 -14 -10 -38 -10 -54 0 -52 -8 -60 -60 -60 -63 0 -106
-34 -121 -96 -14 -54 -56 -84 -117 -84 -33 0 -45 5 -58 25 -39 60 36 171 84
123 20 -20 14 -45 -19 -73 -36 -29 -34 -40 4 -26 92 35 86 131 -7 131 -77 0
-133 -60 -123 -134 12 -85 94 -111 186 -60 l47 27 27 -27 c30 -30 71 -34 105
-10 21 15 25 15 41 0 23 -20 50 -20 80 0 22 16 25 16 51 0 35 -20 69 -20 98 0
21 15 25 15 41 0 20 -19 62 -21 78 -5 9 9 19 9 40 1 15 -6 55 -10 88 -9 l60 2
11 78 c12 89 28 113 69 103 l28 -7 -7 -73 c-5 -61 -4 -77 9 -90 21 -21 50 -20
86 1 26 16 29 16 47 0 10 -9 24 -17 30 -17 16 0 15 -6 -4 -35 -9 -14 -14 -39
-12 -62 2 -30 8 -39 29 -47 36 -12 76 0 94 28 9 13 18 53 22 90 6 62 9 69 44
100 42 36 53 57 17 32 -47 -33 -54 -15 -32 92 4 21 2 22 -71 22 -68 0 -78 -3
-106 -28 -25 -22 -35 -42 -44 -88 -10 -54 -14 -59 -39 -62 l-28 -4 6 75 c6 62
5 77 -9 91 -19 18 -57 21 -87 5 -14 -8 -23 -8 -31 0 -6 6 -19 11 -28 11 -14 0
-19 -12 -24 -57 -11 -102 -31 -134 -70 -119 -15 5 -16 15 -11 64 4 31 9 69 12
85 5 24 3 27 -20 27 -14 0 -26 -3 -26 -6 0 -29 -24 -152 -32 -161 -6 -7 -19
-13 -29 -13 -15 0 -19 7 -19 38 0 34 12 152 25 245 5 36 4 38 -17 35 -20 -3
-24 -12 -33 -68 l-10 -65 -42 -2 c-81 -4 -133 -52 -133 -126 0 -39 -15 -57
-47 -57 -27 0 -27 -7 -8 145 8 65 15 132 15 147 0 36 -27 38 -40 2z m-28 -189
c-5 -69 -21 -99 -55 -103 -38 -5 -57 14 -57 55 0 37 22 88 42 97 7 2 27 4 43
3 30 -2 30 -3 27 -52z m270 -10 c-4 -69 -21 -95 -64 -95 -20 0 -32 7 -39 24
-27 58 23 141 80 134 25 -3 26 -5 23 -63z m644 50 c4 -9 3 -40 -1 -70 -5 -43
-12 -59 -30 -71 -30 -19 -63 -10 -75 21 -12 32 5 97 31 118 26 21 68 22 75 2z
m-21 -232 c-8 -57 -15 -66 -46 -61 -34 4 -35 39 -4 77 41 48 59 42 50 -16z"/>
<path d="M3626 1674 c-9 -23 19 -53 35 -37 15 15 7 47 -12 51 -9 2 -19 -5 -23
-14z"/>
<path d="M801 1554 c-7 -36 -15 -95 -18 -130 -7 -75 4 -94 52 -94 74 0 96 105
29 141 -26 14 -27 22 -8 122 5 24 2 27 -19 27 -23 0 -26 -6 -36 -66z m75 -119
c21 -32 10 -65 -22 -65 -20 0 -24 5 -24 29 0 62 19 77 46 36z"/>
<path d="M1056 1516 c-31 -29 -36 -39 -36 -80 0 -107 108 -140 212 -64 14 10
20 8 38 -15 26 -32 62 -35 90 -7 28 28 25 72 -6 109 -21 26 -24 34 -14 46 16
19 29 19 52 -1 16 -16 18 -16 24 0 13 34 -2 44 -70 43 -70 -1 -76 -6 -76 -68
0 -54 -68 -109 -134 -109 -45 0 -66 22 -66 69 0 51 33 93 69 89 21 -2 27 -9
29 -35 3 -25 -2 -35 -22 -49 -35 -22 -33 -35 3 -23 95 33 85 129 -13 129 -37
0 -51 -6 -80 -34z m304 -91 c13 -34 3 -55 -26 -55 -21 0 -24 5 -24 33 0 19 3
37 7 40 14 14 34 6 43 -18z"/>
<path d="M1165 885 c-22 -8 -41 -15 -42 -15 -1 0 -10 -14 -19 -31 -19 -37 -12
-74 17 -90 31 -16 36 -2 9 26 -22 23 -22 25 -6 50 20 30 53 45 102 45 96 0
144 -94 67 -130 -41 -19 -42 -30 -2 -30 36 0 89 47 89 79 0 34 -23 72 -52 87
-43 22 -117 27 -163 9z"/>
<path d="M1427 778 c-33 -250 -33 -238 -5 -238 24 0 26 4 33 67 8 80 21 110
48 117 39 10 50 -12 43 -85 -6 -54 -4 -70 9 -83 21 -20 54 -21 83 -1 19 14 24
14 51 0 88 -45 181 11 181 110 0 27 -8 44 -29 66 -33 33 -71 37 -125 15 -46
-19 -66 -52 -66 -108 0 -37 -4 -50 -20 -58 -35 -19 -43 -3 -35 74 6 64 4 74
-14 90 -20 18 -33 18 -88 1 -21 -7 -22 -5 -20 71 2 65 -1 79 -14 82 -13 2 -19
-17 -32 -120z m363 -58 c47 -25 28 -133 -26 -146 -60 -15 -90 81 -39 131 27
28 37 30 65 15z"/>
<path d="M1967 893 c-3 -5 -8 -26 -12 -48 -13 -79 -15 -85 -35 -85 -26 0 -26
-17 1 -25 16 -5 19 -13 15 -33 -25 -126 -16 -162 38 -162 76 0 96 91 34 157
-26 28 -16 43 28 43 46 0 44 18 -3 22 l-37 3 -1 64 c0 40 -4 66 -12 68 -6 2
-13 0 -16 -4z m53 -243 c10 -23 10 -37 2 -55 -23 -49 -53 -19 -45 43 7 50 25
55 43 12z"/>
<path d="M3385 888 c-4 -12 -45 -322 -45 -340 0 -5 11 -8 24 -8 22 0 25 6 31
53 11 91 16 107 39 123 13 8 31 11 41 8 15 -6 17 -17 13 -75 -4 -50 -1 -74 9
-89 15 -21 57 -27 82 -11 17 11 61 -7 61 -23 0 -6 -7 -20 -15 -30 -37 -49 -4
-110 56 -104 43 4 79 54 79 110 0 52 25 62 57 22 19 -24 23 -26 23 -10 0 10
-15 33 -34 51 l-34 32 9 78 c6 43 8 80 5 82 -2 3 -14 2 -25 -2 -16 -5 -21 -18
-26 -63 -10 -90 -14 -102 -40 -114 -19 -8 -28 -8 -40 2 -13 11 -15 27 -9 97 6
79 6 83 -14 83 -24 0 -28 -12 -38 -102 -7 -70 -20 -93 -48 -82 -14 5 -16 17
-10 78 5 60 4 75 -11 89 -19 20 -47 22 -77 6 -30 -16 -36 -1 -29 68 4 34 5 66
3 72 -5 15 -32 14 -37 -1z m325 -384 c0 -48 -16 -74 -44 -74 -44 0 -41 62 6
94 33 23 38 20 38 -20z"/>
<path d="M277 853 c-10 -9 -7 -74 3 -98 6 -14 9 -2 9 43 1 62 0 68 -12 55z"/>
<path d="M4696 828 c-9 -34 -7 -76 3 -82 12 -8 25 84 13 96 -6 6 -12 1 -16
-14z"/>
<path d="M330 821 c-13 -25 -13 -40 2 -120 l12 -66 7 45 c11 66 10 160 -1 160
-5 0 -14 -9 -20 -19z"/>
<path d="M1204 822 c-9 -5 -44 -197 -44 -241 0 -39 77 -54 110 -21 29 29 25
64 -11 105 -30 34 -31 37 -24 100 7 66 0 78 -31 57z m66 -207 c0 -32 -25 -51
-45 -35 -15 12 -13 57 2 83 8 14 43 -25 43 -48z"/>
<path d="M4621 773 c0 -32 4 -80 8 -108 l6 -50 13 59 c15 72 15 111 2 137 -19
35 -30 20 -29 -38z"/>
<path d="M90 761 c0 -5 34 -21 75 -34 41 -14 75 -24 75 -21 0 2 -21 18 -47 34
-45 29 -103 40 -103 21z"/>
<path d="M2133 741 c-17 -11 -37 -29 -42 -40 -12 -22 -15 -90 -5 -116 16 -41
119 -60 162 -29 53 37 68 124 29 169 -31 37 -99 44 -144 16z m87 -21 c47 -25
28 -133 -26 -146 -60 -15 -90 81 -39 131 27 28 37 30 65 15z"/>
<path d="M2415 750 c-53 -21 -86 -94 -71 -155 4 -15 21 -35 40 -46 l34 -20
-22 -39 c-19 -37 -20 -42 -6 -67 26 -47 99 -43 124 5 8 16 18 56 22 89 5 49
12 67 34 88 32 31 50 26 50 -14 0 -15 5 -32 12 -39 16 -16 60 -15 83 2 27 19
25 79 -3 109 -26 27 -28 52 -6 61 21 8 20 8 39 -10 19 -20 41 -5 32 21 -9 22
-36 30 -58 16 -15 -8 -23 -8 -38 0 -29 19 -48 5 -54 -40 -3 -28 -14 -48 -33
-65 -16 -13 -32 -22 -36 -20 -4 3 -5 33 -1 67 l5 63 -63 1 c-35 1 -73 -2 -84
-7z m83 -19 c16 -10 7 -105 -14 -138 -19 -31 -59 -30 -79 1 -42 63 34 175 93
137z m216 -104 c8 -21 6 -31 -6 -43 -23 -23 -38 -9 -38 37 0 33 3 40 17 37 10
-2 22 -16 27 -31z m-232 -123 c-6 -66 -11 -75 -40 -72 -39 4 -42 42 -6 79 34
35 50 32 46 -7z"/>
<path d="M2872 743 c-41 -20 -62 -59 -62 -113 0 -72 71 -114 130 -78 16 10 24
10 40 0 24 -15 55 -15 82 -1 20 11 20 9 13 -70 l-7 -81 25 0 c23 0 25 5 33 68
l9 67 45 5 c84 11 120 47 120 121 0 75 -21 93 -113 95 l-76 1 -7 -56 c-7 -64
-29 -117 -51 -125 -30 -12 -36 5 -29 94 l6 87 -62 1 c-39 1 -75 -5 -96 -15z
m96 -11 c10 -7 11 -22 4 -65 -14 -90 -63 -125 -98 -72 -43 65 33 175 94 137z
m266 -18 c25 -25 21 -90 -9 -119 -51 -52 -90 -25 -79 54 9 70 52 102 88 65z"/>
<path d="M4825 741 c-22 -11 -53 -31 -70 -45 -30 -25 -30 -25 59 7 49 18 91
38 94 45 6 18 -37 15 -83 -7z"/>
<path d="M539 683 c-14 -33 0 -146 28 -236 l18 -59 -1 144 c0 79 -1 151 -2
161 -3 27 -31 20 -43 -10z"/>
<path d="M414 676 c-4 -9 -1 -37 5 -62 12 -47 71 -187 77 -181 2 1 -3 25 -11
52 -8 26 -15 67 -16 89 -1 76 -39 145 -55 102z"/>
<path d="M4386 681 c-3 -5 -5 -77 -4 -161 l3 -152 18 58 c26 87 39 187 29 225
-8 33 -34 50 -46 30z"/>
<path d="M4522 643 c-6 -16 -16 -67 -21 -115 -6 -49 -15 -98 -22 -110 -10 -20
-10 -21 4 -8 32 32 90 215 79 248 -7 21 -29 13 -40 -15z"/>
<path d="M160 630 c-23 -14 -4 -26 105 -64 94 -33 98 -34 70 -11 -32 27 -109
69 -140 79 -11 3 -27 1 -35 -4z"/>
<path d="M4752 595 c-34 -15 -182 -114 -182 -122 0 -3 19 6 43 20 23 14 69 33
102 42 80 24 125 46 125 62 0 17 -46 16 -88 -2z"/>
<path d="M198 474 c-27 -26 36 -44 151 -41 l84 2 -59 18 c-67 21 -165 33 -176
21z"/>
<path d="M4665 435 c-117 -26 -119 -34 -10 -34 117 -1 147 5 143 28 -4 21 -56
24 -133 6z"/>
<path d="M500 411 c0 -5 5 -13 10 -16 6 -3 10 -2 10 4 0 5 -4 13 -10 16 -5 3
-10 2 -10 -4z"/>
<path d="M4456 374 c-4 -9 -4 -19 -1 -22 2 -3 7 3 11 12 4 9 4 19 1 22 -2 3
-7 -3 -11 -12z"/>
<path d="M330 352 c0 -15 27 -20 134 -25 87 -3 89 -3 50 10 -53 19 -184 30
-184 15z"/>
<path d="M4535 314 c-128 -22 -133 -35 -10 -28 112 6 125 9 125 23 0 16 -45
17 -115 5z"/>
<path d="M605 310 c3 -5 8 -10 11 -10 2 0 4 5 4 10 0 6 -5 10 -11 10 -5 0 -7
-4 -4 -10z"/>
</g>
</svg>
